<?xml version="1.0" encoding="utf-8"?>
<!-- Generator: Adobe Illustrator 19.0.0, SVG Export Plug-In . SVG Version: 6.00 Build 0)  -->
<svg version="1.1" id="Layer_2" xmlns="http://www.w3.org/2000/svg" xmlns:xlink="http://www.w3.org/1999/xlink" x="0px" y="0px"
	 viewBox="-39.7 624.5 84.2 54.7" style="enable-background:new -39.7 624.5 84.2 54.7;" xml:space="preserve">
<style type="text/css">
	.st0{fill:#2595CD;}
	.st1{fill:#C74C82;}
	.st2{enable-background:new    ;}
	.st3{fill:#694990;}
</style>
<g>
	<path class="st0" d="M9.2,655.5c-4.2-2.7-7.6-4.7-10.3-5.9c-2.7-1.2-4.7-1.7-6-1.4c-1.3,0.2-2.2,0.9-2.6,2c-0.4,1.1-0.4,2.6,0,4.5
		c0.4,1.9,0.9,3.8,1.7,6c-0.7,0.1-1.3,0.3-2,0.4c-0.7,0.2-1.3,0.3-2,0.5c-1.1-3.7-1.7-6.8-1.9-9.2c-0.2-2.4,0-4.3,0.5-5.6
		c0.5-1.3,1.3-2.2,2.4-2.6c1.1-0.4,2.4-0.4,3.9,0c1.5,0.3,3.2,1,5,2c1.8,1,3.7,2.1,5.7,3.4c2,1.3,3.9,2.8,5.9,4.3
		c2,1.6,3.9,3.1,5.8,4.7c1.8,1.5,3.6,3,5.2,4.5c1.6,1.4,3,2.7,4.2,3.8C18.6,662,13.4,658.2,9.2,655.5"/>
	<path class="st1" d="M-5.7,624.5c-0.7,0-1.4,0.2-2,0.5c-0.6,0.4-1.1,0.8-1.4,1.5c-0.4,0.6-0.5,1.3-0.5,2c0,0.7,0.2,1.4,0.5,2
		c0.4,0.6,0.8,1.1,1.4,1.4c0.6,0.4,1.3,0.5,2,0.6c0.8,0,1.4-0.2,2-0.6c0.6-0.4,1.1-0.8,1.5-1.4c0.4-0.6,0.5-1.3,0.5-2
		c0-0.8-0.2-1.4-0.5-2c-0.4-0.6-0.8-1.1-1.5-1.5C-4.3,624.7-5,624.5-5.7,624.5 M11.4,631.8c-0.8-0.5-1.9-0.7-3-0.5
		c-1.2,0.2-2.5,0.7-3.9,1.4c-1.5,0.8-2.9,1.6-4.5,2.6c-1.5,1-3,1.9-4.6,2.9c-1.5,1-3,1.8-4.3,2.5c-1.3,0.7-2.5,1.2-3.6,1.4
		c-1.1,0.2-1.9,0-2.6-0.5c-0.6-0.6-1-1.7-1.1-3.2c-0.1-1.6,0.2-3.8,0.8-6.6c0.5,0.1,1,0.1,1.5,0.2c0.5,0.1,1,0.2,1.5,0.3
		c-0.5,1.8-0.7,3.2-0.6,4c0.1,0.9,0.5,1.4,1.1,1.6c0.6,0.2,1.4,0.1,2.4-0.3c1-0.4,2.1-0.9,3.4-1.5c1.3-0.6,2.6-1.3,4-2.1
		c1.4-0.8,2.8-1.5,4.1-2.2c1.4-0.7,2.7-1.2,4-1.6c1.3-0.4,2.4-0.5,3.4-0.4c1,0.1,1.8,0.6,2.5,1.3c0.6,0.8,1,2,1.1,3.7
		C12.8,633.3,12.3,632.3,11.4,631.8"/>
	<g class="st2">
		<path class="st3" d="M-34.1,674.6v-1.3l4.7,0v4.1c-0.7,0.6-1.5,1-2.2,1.3c-0.8,0.3-1.6,0.4-2.4,0.4c-1.1,0-2.1-0.2-3-0.7
			c-0.9-0.5-1.6-1.1-2-2c-0.5-0.9-0.7-1.9-0.7-3c0-1.1,0.2-2.1,0.7-3c0.5-0.9,1.1-1.6,2-2.1c0.9-0.5,1.8-0.7,2.9-0.7
			c0.8,0,1.5,0.1,2.2,0.4c0.7,0.3,1.2,0.6,1.5,1.1c0.4,0.5,0.7,1.1,0.8,1.8l-1.3,0.4c-0.2-0.6-0.4-1-0.6-1.3
			c-0.2-0.3-0.6-0.6-1.1-0.8c-0.5-0.2-1-0.3-1.5-0.3c-0.7,0-1.3,0.1-1.7,0.3c-0.5,0.2-0.9,0.5-1.2,0.8c-0.3,0.3-0.5,0.7-0.7,1.1
			c-0.3,0.7-0.4,1.4-0.4,2.2c0,1,0.2,1.8,0.5,2.5c0.3,0.7,0.8,1.2,1.5,1.5c0.7,0.3,1.3,0.5,2.1,0.5c0.6,0,1.3-0.1,1.9-0.4
			c0.6-0.2,1.1-0.5,1.4-0.8v-2.1H-34.1z"/>
		<path class="st3" d="M-21.9,676.4l1.4,0.2c-0.2,0.8-0.6,1.5-1.2,1.9c-0.6,0.5-1.4,0.7-2.3,0.7c-1.2,0-2.1-0.4-2.8-1.1
			c-0.7-0.7-1-1.7-1-3.1c0-1.4,0.3-2.4,1-3.2s1.6-1.1,2.7-1.1c1.1,0,2,0.4,2.6,1.1c0.7,0.7,1,1.8,1,3.1c0,0.1,0,0.2,0,0.4h-6
			c0.1,0.9,0.3,1.6,0.8,2c0.5,0.5,1,0.7,1.7,0.7c0.5,0,0.9-0.1,1.3-0.4C-22.3,677.4-22.1,677-21.9,676.4z M-26.4,674.2h4.5
			c-0.1-0.7-0.2-1.2-0.5-1.5c-0.4-0.5-1-0.8-1.7-0.8c-0.6,0-1.2,0.2-1.6,0.6C-26.1,672.9-26.3,673.5-26.4,674.2z"/>
		<path class="st3" d="M-15.7,677.8l0.2,1.2c-0.4,0.1-0.7,0.1-1,0.1c-0.5,0-0.9-0.1-1.2-0.2c-0.3-0.2-0.5-0.4-0.6-0.6
			c-0.1-0.3-0.2-0.8-0.2-1.6V672h-1v-1.1h1v-2l1.4-0.8v2.8h1.4v1.1h-1.4v4.7c0,0.4,0,0.6,0.1,0.8c0,0.1,0.1,0.2,0.2,0.3
			c0.1,0.1,0.3,0.1,0.5,0.1C-16.2,677.8-16,677.8-15.7,677.8z"/>
		<path class="st3" d="M-14.1,679v-11.2h7.5v1.3h-6v3.5h5.2v1.3h-5.2v5.1H-14.1z"/>
		<path class="st3" d="M-4.9,669.4v-1.6h1.4v1.6H-4.9z M-4.9,679v-8.1h1.4v8.1H-4.9z"/>
		<path class="st3" d="M1.6,677.8l0.2,1.2c-0.4,0.1-0.7,0.1-1,0.1c-0.5,0-0.9-0.1-1.2-0.2c-0.3-0.2-0.5-0.4-0.6-0.6
			c-0.1-0.3-0.2-0.8-0.2-1.6V672h-1v-1.1h1v-2l1.4-0.8v2.8h1.4v1.1H0.2v4.7c0,0.4,0,0.6,0.1,0.8c0,0.1,0.1,0.2,0.2,0.3
			c0.1,0.1,0.3,0.1,0.5,0.1C1.1,677.8,1.3,677.8,1.6,677.8z"/>
		<path class="st3" d="M3,679v-11.2h2.2l2.6,7.9c0.2,0.7,0.4,1.3,0.5,1.7c0.1-0.4,0.3-1,0.6-1.8l2.7-7.8h2V679h-1.4v-9.3L9,679H7.7
			l-3.2-9.5v9.5H3z"/>
		<path class="st3" d="M21.2,678c-0.5,0.4-1,0.7-1.5,0.9c-0.5,0.2-1,0.3-1.5,0.3c-0.9,0-1.6-0.2-2-0.7c-0.5-0.4-0.7-1-0.7-1.7
			c0-0.4,0.1-0.8,0.3-1.1c0.2-0.3,0.4-0.6,0.7-0.8c0.3-0.2,0.6-0.3,1-0.4c0.3-0.1,0.7-0.1,1.2-0.2c1.1-0.1,1.9-0.3,2.4-0.5
			c0-0.2,0-0.3,0-0.4c0-0.6-0.1-1-0.4-1.2c-0.3-0.3-0.9-0.5-1.6-0.5c-0.6,0-1.1,0.1-1.4,0.3c-0.3,0.2-0.5,0.6-0.7,1.2l-1.3-0.2
			c0.1-0.6,0.3-1,0.6-1.4c0.3-0.4,0.7-0.6,1.2-0.8c0.5-0.2,1.1-0.3,1.8-0.3c0.7,0,1.3,0.1,1.7,0.2c0.4,0.2,0.7,0.4,1,0.6
			c0.2,0.2,0.3,0.6,0.4,0.9c0,0.2,0.1,0.7,0.1,1.3v1.8c0,1.3,0,2.1,0.1,2.4c0.1,0.3,0.2,0.7,0.3,1h-1.4
			C21.3,678.7,21.2,678.4,21.2,678z M21,674.9c-0.5,0.2-1.2,0.4-2.2,0.5c-0.6,0.1-1,0.2-1.2,0.3c-0.2,0.1-0.4,0.2-0.5,0.4
			c-0.1,0.2-0.2,0.4-0.2,0.7c0,0.4,0.1,0.7,0.4,0.9c0.3,0.2,0.7,0.4,1.2,0.4c0.5,0,1-0.1,1.4-0.3c0.4-0.2,0.7-0.5,0.9-0.9
			c0.1-0.3,0.2-0.8,0.2-1.4V674.9z"/>
		<path class="st3" d="M24.5,679v-8.1h1.2v1.1c0.3-0.4,0.6-0.7,1-1c0.4-0.2,0.9-0.4,1.4-0.4c0.6,0,1.1,0.1,1.5,0.4
			c0.4,0.2,0.7,0.6,0.8,1c0.6-0.9,1.5-1.4,2.5-1.4c0.8,0,1.4,0.2,1.8,0.7c0.4,0.4,0.6,1.1,0.6,2.1v5.5h-1.4v-5.1
			c0-0.5,0-0.9-0.1-1.2c-0.1-0.2-0.3-0.4-0.5-0.6c-0.2-0.1-0.5-0.2-0.8-0.2c-0.6,0-1,0.2-1.4,0.6c-0.4,0.4-0.6,1-0.6,1.8v4.7h-1.4
			v-5.2c0-0.6-0.1-1.1-0.3-1.4c-0.2-0.3-0.6-0.5-1.1-0.5c-0.4,0-0.7,0.1-1.1,0.3s-0.6,0.5-0.7,0.9c-0.1,0.4-0.2,1-0.2,1.7v4.2H24.5z
			"/>
		<path class="st3" d="M42.8,678c-0.5,0.4-1,0.7-1.5,0.9c-0.5,0.2-1,0.3-1.5,0.3c-0.9,0-1.6-0.2-2-0.7c-0.5-0.4-0.7-1-0.7-1.7
			c0-0.4,0.1-0.8,0.3-1.1c0.2-0.3,0.4-0.6,0.7-0.8c0.3-0.2,0.6-0.3,1-0.4c0.3-0.1,0.7-0.1,1.2-0.2c1.1-0.1,1.9-0.3,2.4-0.5
			c0-0.2,0-0.3,0-0.4c0-0.6-0.1-1-0.4-1.2c-0.3-0.3-0.9-0.5-1.6-0.5c-0.6,0-1.1,0.1-1.4,0.3c-0.3,0.2-0.5,0.6-0.7,1.2l-1.3-0.2
			c0.1-0.6,0.3-1,0.6-1.4c0.3-0.4,0.7-0.6,1.2-0.8c0.5-0.2,1.1-0.3,1.8-0.3c0.7,0,1.3,0.1,1.7,0.2c0.4,0.2,0.7,0.4,1,0.6
			c0.2,0.2,0.3,0.6,0.4,0.9c0,0.2,0.1,0.7,0.1,1.3v1.8c0,1.3,0,2.1,0.1,2.4c0.1,0.3,0.2,0.7,0.3,1h-1.4
			C42.9,678.7,42.8,678.4,42.8,678z M42.7,674.9c-0.5,0.2-1.2,0.4-2.2,0.5c-0.6,0.1-1,0.2-1.2,0.3c-0.2,0.1-0.4,0.2-0.5,0.4
			c-0.1,0.2-0.2,0.4-0.2,0.7c0,0.4,0.1,0.7,0.4,0.9c0.3,0.2,0.7,0.4,1.2,0.4c0.5,0,1-0.1,1.4-0.3c0.4-0.2,0.7-0.5,0.9-0.9
			c0.1-0.3,0.2-0.8,0.2-1.4V674.9z"/>
	</g>
</g>
</svg>
